<?xml version="1.0" encoding="utf-8"?>
<!-- Generator: Adobe Illustrator 23.0.1, SVG Export Plug-In . SVG Version: 6.00 Build 0)  -->
<svg version="1.1" id="레이어_1" xmlns="http://www.w3.org/2000/svg" xmlns:xlink="http://www.w3.org/1999/xlink" x="0px"
	 y="0px" viewBox="0 0 145.8 23.5" style="enable-background:new 0 0 145.8 23.5;" xml:space="preserve">
<style type="text/css">
	.st0{enable-background:new    ;}
	.st1{fill:#323232;}
	.st2{fill:#05CE7C;}
	.st3{fill:#FF6B00;}
	.st4{fill:#055600;}
	.st5{fill:#00B3E3;}
	.st6{fill:#FF4338;}
	.st7{fill:#002F32;}
	.st8{fill:#FFC843;}
	.st9{fill:#DA3AB3;}
	.st10{fill:#DA2D2F;}
	.st11{fill:#00299F;}
	.st12{fill:#DA1800;}
</style>
<g class="st0">
	<path class="st1" d="M28.3,7.7l-2.4,1.2c-0.1-0.2-0.3-0.4-0.4-0.6c-0.2-0.2-0.4-0.3-0.6-0.4c-0.2-0.1-0.4-0.2-0.6-0.2
		s-0.4-0.1-0.6-0.1s-0.4,0-0.6,0s-0.3,0.1-0.5,0.2c-0.2,0.1-0.3,0.2-0.4,0.4s-0.2,0.4-0.2,0.6c0,0.2,0.1,0.4,0.2,0.6
		c0.1,0.2,0.3,0.4,0.6,0.6c0,0,0.1,0,0.1,0.1c0.1,0,0.1,0.1,0.2,0.1c0.2,0.1,0.5,0.3,0.8,0.4c0.2,0.1,0.5,0.3,0.8,0.4
		c0.1,0,0.2,0.1,0.2,0.1s0.1,0.1,0.2,0.1c0.2,0.1,0.3,0.2,0.4,0.2c0.1,0.1,0.2,0.1,0.4,0.2c0.4,0.2,0.7,0.5,1,0.7
		c0.3,0.3,0.4,0.6,0.6,0.8c0.1,0.3,0.2,0.6,0.3,0.9c0.1,0.3,0.1,0.6,0.1,0.9c0,0.4,0,0.7-0.1,1c-0.1,0.4-0.2,0.7-0.4,0.9
		c-0.2,0.3-0.5,0.6-0.8,0.8c-0.3,0.3-0.7,0.5-1.2,0.7c0,0-0.2,0.1-0.4,0.1c-0.1,0-0.3,0.1-0.5,0.1c-0.1,0-0.2,0-0.2,0
		c-0.1,0-0.2,0-0.2,0c-0.2,0-0.4,0-0.4,0h-0.1c-0.1,0-0.2,0-0.3,0c-0.1,0-0.1,0-0.1,0H23c0,0-0.1,0-0.2,0c-0.3,0-0.6-0.1-0.9-0.2
		c-0.3-0.1-0.6-0.2-1-0.4c-0.3-0.2-0.7-0.4-0.9-0.7c-0.3-0.3-0.6-0.6-0.8-1c0,0,0-0.1-0.1-0.1s0-0.1-0.1-0.1
		c-0.1-0.1-0.1-0.2-0.1-0.2l2.4-1.2h0.1c0.1,0.2,0.2,0.4,0.4,0.6c0.2,0.2,0.4,0.3,0.6,0.4c0.2,0.1,0.4,0.2,0.6,0.2s0.4,0.1,0.6,0.1
		s0.4,0,0.6,0s0.4-0.1,0.5-0.2c0.1-0.1,0.3-0.2,0.4-0.4s0.2-0.4,0.2-0.6c0-0.5-0.4-1-1.1-1.4c-0.1,0-0.1-0.1-0.2-0.1
		c-0.1-0.1-0.2-0.1-0.4-0.2c-0.1,0-0.2-0.1-0.2-0.1c-0.1,0-0.2-0.1-0.2-0.1c-0.2-0.1-0.4-0.2-0.4-0.2c-0.1,0-0.1-0.1-0.2-0.1
		s-0.2-0.1-0.2-0.1c-0.1,0-0.1-0.1-0.2-0.1s-0.1-0.1-0.2-0.1s-0.1-0.1-0.2-0.1s-0.1-0.1-0.2-0.1c-0.4-0.2-0.7-0.4-1-0.7
		c-0.3-0.3-0.4-0.6-0.6-0.9c-0.1-0.3-0.2-0.6-0.3-0.9c-0.1-0.3-0.1-0.6-0.1-0.9c0,0,0-0.1,0-0.3c0-0.3,0.1-0.4,0.1-0.5
		c0,0,0,0,0-0.2c0-0.1,0-0.1,0.1-0.2c0-0.1,0.1-0.2,0.1-0.2C19.9,7.1,20,7,20,6.9c0.1-0.2,0.2-0.4,0.4-0.6C20.5,6,20.7,5.9,21,5.7
		c0.2-0.2,0.4-0.3,0.6-0.4C21.8,5.2,22,5.1,22.2,5c0.3-0.1,0.6-0.2,0.9-0.2s0.6-0.1,0.9-0.1h0.1c0,0,0.1,0,0.2,0h0.1
		c0,0,0.1,0,0.2,0s0.2,0,0.2,0c0.3,0,0.6,0.1,0.9,0.2c0.3,0.1,0.7,0.2,1,0.4s0.7,0.4,0.9,0.7C28,6.3,28.3,6.7,28.6,7l0.1,0.2
		c0,0,0,0.1,0.1,0.1C28.2,7.6,28.3,7.7,28.3,7.7z"/>
	<path class="st1" d="M41,7.7h-6.3h-0.8H31V4.8h10V7.7z M33.8,10.4h0.8h2.6v2.9h-3.6v5.6h-2.9v-8.5H33.8z"/>
	<path class="st1" d="M53.7,19h-3.2l-2.4-5.4h-1.5V19h-2.9v-8.3h2.9h0.7h1.4c0,0,0.1,0,0.2,0c0.2-0.1,0.2-0.1,0.2-0.1
		c0.4-0.1,0.6-0.3,0.7-0.6s0.2-0.5,0.2-0.8c0-0.2-0.1-0.5-0.2-0.8c-0.1-0.3-0.4-0.5-0.7-0.6c0,0-0.1,0-0.2-0.1c-0.1,0-0.2,0-0.2,0
		h-1.4h-0.7h-2.9V4.8h5.1c0,0,0.1,0,0.3,0c0.1,0,0.2,0,0.4,0.1c0.2,0,0.3,0.1,0.4,0.1c0.1,0,0.2,0.1,0.3,0.1
		c0.3,0.1,0.5,0.3,0.8,0.4c0.3,0.2,0.5,0.4,0.8,0.7c0.3,0.3,0.5,0.7,0.7,1s0.3,0.7,0.4,1c0.1,0.3,0.1,0.6,0.1,0.9
		c0,0.6-0.1,1.3-0.4,1.9c-0.3,0.6-0.8,1.2-1.6,1.7L53.7,19z"/>
	<path class="st1" d="M56.4,7.7V4.8h10v2.9c-1.6,0-3.4,0-5,0C59.6,7.7,58,7.7,56.4,7.7z M56.4,13.3v-2.9c1,0,2.1,0,3.2,0
		s2.1,0,3.3,0v2.9c-1.1,0-2.1,0-3.3,0S57.4,13.3,56.4,13.3z M66.4,19h-10v-3c1.6,0,3.4,0,5,0c1.6,0,3.4,0,5,0V19z"/>
	<path class="st1" d="M12.9,4.8V16c-1,0-2,0-3.1,0s-2,0-3.1,0V4.8H3.9c0,2.3,0,4.7,0,7c0,1.4,0,2.8,0,4.2l2.9,2.9c0.9,0-0.9,0,0,0
		c1,0,2,0,3.1,0c1.9,0,4,0,5.9,0l0,0c0-0.9,0-1.9,0-2.9c0-1.4,0-2.9,0-4.2c0-2.3,0-4.7,0-7H12.9z"/>
	<path class="st1" d="M69,7.7V4.8h10v2.9c-1.6,0-3.4,0-5,0C72.4,7.7,70.7,7.7,69,7.7z M69,13.3v-2.9c1,0,2.1,0,3.2,0
		c1,0,2.1,0,3.3,0v2.9c-1.1,0-2.1,0-3.3,0S70.1,13.3,69,13.3z M79,19H69v-3c1.6,0,3.4,0,5,0s3.4,0,5,0V19z"/>
</g>
<polygon class="st1" points="124.9,0 140,0 140,0 "/>
<g>
	<g>
		<g>
			<path class="st2" d="M89.4,6.3c-1.2,0-2.4,0.4-3.2,1.2c-0.9,0.8-1.3,1.8-1.3,2.9v4.1c0,2.3,2.1,4.1,4.6,4.1
				c2.5,0,4.6-1.8,4.6-4.1v-1h-2.4v1c0,1.1-1,2-2.2,2c-1.2,0-2.2-0.9-2.2-2v-4.1c0-0.8,0.5-1.5,1.4-1.8S90.4,8.5,91,9l1.7-1.5
				C91.8,6.8,90.7,6.3,89.4,6.3"/>
			<polyline class="st3" points="94,11.4 89.4,11.4 89.4,13.6 91.6,13.6 91.6,11.4 94,11.4 94,13.6 94,11.4 			"/>
			<polyline class="st4" points="94,11.4 91.6,11.4 91.6,13.6 94,13.6 94,11.4 			"/>
		</g>
		<g>
			<path class="st5" d="M100.2,6.3c-2.5,0-4.6,1.8-4.6,4.1v8.2H98v-4.4h-2.4v-2.1H98v-1.7c0-1.1,1-2,2.2-2s2.2,0.9,2.2,2v1.7h2.4
				v-1.7C104.8,8.2,102.7,6.3,100.2,6.3 M104.8,14.3h-2.4v4.4h2.4V14.3"/>
			<polyline class="st6" points="102.4,12.2 98,12.2 98,14.3 102.4,14.3 102.4,12.2 			"/>
			<path class="st7" d="M104.8,12.2h-2.4v2.1h2.4V12.2 M98,12.2h-2.4v2.1H98V12.2"/>
		</g>
		<g>
			<path class="st8" d="M117.2,6.3c-1.1,0-2.2,0.4-3,1.1c0.8,0.7,1.2,1.6,1.2,2.6l0,0c0-0.9,0.8-1.6,1.8-1.6s1.8,0.7,1.8,1.6v8.6
				h2.4V10C121.3,8,119.4,6.3,117.2,6.3"/>
			<path class="st9" d="M111.2,6.3c-0.9,0-1.7,0.2-2.4,0.7c0.4,0.4,0.6,0.9,0.6,1.4V10c0-0.9,0.8-1.6,1.8-1.6S113,9.2,113,10l0,0
				c0-1,0.4-1.9,1.2-2.6C113.4,6.7,112.4,6.3,111.2,6.3"/>
			<path class="st10" d="M114.2,7.4c-0.8,0.7-1.2,1.6-1.2,2.6v8.6h2.4V10C115.4,9.1,115,8.1,114.2,7.4"/>
			<path class="st5" d="M107.1,6.3h-1.2v2.1h1.1V10c0-1.2,0.7-2.3,1.8-3C108.4,6.6,107.8,6.3,107.1,6.3"/>
			<path class="st11" d="M108.8,7c-1.1,0.7-1.8,1.8-1.8,3v8.6h2.4V10V8.4C109.5,7.9,109.2,7.4,108.8,7"/>
		</g>
		<g>
			<path class="st3" d="M122.9,10L122.9,10v5.1c0,2,1.8,3.6,4,3.6h4.4v-2.1h-4.4c-0.9,0-1.7-0.7-1.7-1.5v-1.8
				C123.8,12.7,122.9,11.4,122.9,10"/>
			<path class="st9" d="M125.3,10L125.3,10v3.3c0.5,0.2,1.1,0.3,1.7,0.3h4.4v-2.1h-4.4C126,11.4,125.3,10.8,125.3,10"/>
			<path class="st12" d="M131.3,6.3h-4.4c-1.9,0-3.6,1.2-4,2.9s0.6,3.4,2.3,4.1V10c0-0.8,0.7-1.5,1.7-1.5h4.4L131.3,6.3"/>
		</g>
		<g>
			<path class="st6" d="M137.1,6c-2.3,0-4.1,1.5-4.2,3.4c-0.1,1.3,0.5,3,3.8,4c2.2,0.7,2.2,1.5,2.2,1.8c0,0.8-0.8,1.3-1.8,1.3
				c-1.2,0-1.7-0.5-1.8-1l-2.3,0.8c0.2,0.6,1.2,2.4,4.1,2.4c2.3,0,4.1-1.5,4.2-3.4c0.1-1.3-0.5-3-3.8-4c-2.2-0.7-2.2-1.5-2.2-1.8
				c0-0.8,0.8-1.3,1.8-1.3c1.2,0,1.7,0.5,1.8,1l2.3-0.8C141,7.8,140,6,137.1,6"/>
		</g>
	</g>
</g>
</svg>
